<mxfile host="Electron" modified="2024-04-21T13:58:07.454Z" agent="Mozilla/5.0 (Windows NT 10.0; Win64; x64) AppleWebKit/537.36 (KHTML, like Gecko) draw.io/24.2.5 Chrome/120.0.6099.109 Electron/28.1.0 Safari/537.36" etag="YvTP9BpMP5AEc3d5eESC" version="24.2.5" type="device">
  <diagram name="PÃ¡gina-1" id="1GN9vcEG_PMR4E3dHarU">
    <mxGraphModel dx="1434" dy="884" grid="0" gridSize="10" guides="1" tooltips="1" connect="1" arrows="1" fold="1" page="1" pageScale="1" pageWidth="1169" pageHeight="827" background="none" math="0" shadow="0">
      <root>
        <mxCell id="0" />
        <mxCell id="1" parent="0" />
        <mxCell id="WRb-MRRNFJ1OJcF1Neac-1" value="" style="rounded=0;whiteSpace=wrap;html=1;dashed=1;strokeColor=#250af0;" vertex="1" parent="1">
          <mxGeometry x="10" y="167" width="478" height="281" as="geometry" />
        </mxCell>
        <mxCell id="WRb-MRRNFJ1OJcF1Neac-6" value="AZURE" style="text;html=1;align=center;verticalAlign=middle;whiteSpace=wrap;rounded=0;" vertex="1" parent="1">
          <mxGeometry x="216" y="132" width="82" height="30" as="geometry" />
        </mxCell>
        <mxCell id="WRb-MRRNFJ1OJcF1Neac-14" value="" style="rounded=0;whiteSpace=wrap;html=1;dashed=1;strokeColor=#250af0;" vertex="1" parent="1">
          <mxGeometry x="643" y="167" width="518" height="281" as="geometry" />
        </mxCell>
        <mxCell id="WRb-MRRNFJ1OJcF1Neac-15" value="ON PREMISES" style="text;html=1;align=center;verticalAlign=middle;whiteSpace=wrap;rounded=0;" vertex="1" parent="1">
          <mxGeometry x="861" y="132" width="94" height="30" as="geometry" />
        </mxCell>
        <mxCell id="WRb-MRRNFJ1OJcF1Neac-16" value="" style="image;aspect=fixed;html=1;points=[];align=center;fontSize=12;image=img/lib/azure2/databases/SQL_Database.svg;" vertex="1" parent="1">
          <mxGeometry x="192.5" y="199" width="48" height="64" as="geometry" />
        </mxCell>
        <mxCell id="WRb-MRRNFJ1OJcF1Neac-36" style="edgeStyle=orthogonalEdgeStyle;rounded=0;orthogonalLoop=1;jettySize=auto;html=1;" edge="1" parent="1" source="WRb-MRRNFJ1OJcF1Neac-17" target="WRb-MRRNFJ1OJcF1Neac-16">
          <mxGeometry relative="1" as="geometry" />
        </mxCell>
        <mxCell id="WRb-MRRNFJ1OJcF1Neac-17" value="" style="image;aspect=fixed;html=1;points=[];align=center;fontSize=12;image=img/lib/azure2/databases/SQL_Server.svg;" vertex="1" parent="1">
          <mxGeometry x="40" y="188" width="86" height="86" as="geometry" />
        </mxCell>
        <mxCell id="WRb-MRRNFJ1OJcF1Neac-20" value="" style="image;aspect=fixed;html=1;points=[];align=center;fontSize=12;image=img/lib/azure2/app_services/App_Service_Plans.svg;" vertex="1" parent="1">
          <mxGeometry x="49" y="346" width="68" height="68" as="geometry" />
        </mxCell>
        <mxCell id="WRb-MRRNFJ1OJcF1Neac-34" style="edgeStyle=orthogonalEdgeStyle;rounded=0;orthogonalLoop=1;jettySize=auto;html=1;startArrow=classic;startFill=1;dashed=1;fillColor=#6a00ff;strokeColor=#3700CC;flowAnimation=1;" edge="1" parent="1" source="WRb-MRRNFJ1OJcF1Neac-21" target="WRb-MRRNFJ1OJcF1Neac-22">
          <mxGeometry relative="1" as="geometry" />
        </mxCell>
        <mxCell id="WRb-MRRNFJ1OJcF1Neac-21" value="" style="image;aspect=fixed;html=1;points=[];align=center;fontSize=12;image=img/lib/azure2/app_services/App_Services.svg;" vertex="1" parent="1">
          <mxGeometry x="187" y="346" width="59" height="59" as="geometry" />
        </mxCell>
        <mxCell id="WRb-MRRNFJ1OJcF1Neac-22" value="" style="image;sketch=0;aspect=fixed;html=1;points=[];align=center;fontSize=12;image=img/lib/mscae/Application_Gateway.svg;" vertex="1" parent="1">
          <mxGeometry x="338" y="350.5" width="50" height="50" as="geometry" />
        </mxCell>
        <mxCell id="WRb-MRRNFJ1OJcF1Neac-23" value="" style="image;sketch=0;aspect=fixed;html=1;points=[];align=center;fontSize=12;image=img/lib/mscae/VPN_Gateway.svg;" vertex="1" parent="1">
          <mxGeometry x="408" y="282.5" width="45" height="50" as="geometry" />
        </mxCell>
        <mxCell id="WRb-MRRNFJ1OJcF1Neac-26" value="" style="endArrow=classic;startArrow=classic;html=1;rounded=0;exitX=0.956;exitY=0.52;exitDx=0;exitDy=0;dashed=1;dashPattern=8 8;strokeWidth=3;flowAnimation=1;fillColor=#f8cecc;strokeColor=#b85450;exitPerimeter=0;entryX=0;entryY=0.539;entryDx=0;entryDy=0;entryPerimeter=0;" edge="1" parent="1" source="WRb-MRRNFJ1OJcF1Neac-23" target="WRb-MRRNFJ1OJcF1Neac-28">
          <mxGeometry width="50" height="50" relative="1" as="geometry">
            <mxPoint x="561" y="475" as="sourcePoint" />
            <mxPoint x="611" y="425" as="targetPoint" />
          </mxGeometry>
        </mxCell>
        <mxCell id="WRb-MRRNFJ1OJcF1Neac-27" value="" style="html=1;strokeWidth=1;shadow=0;dashed=0;shape=mxgraph.ios7.misc.vpn;fillColor=#007AFF;strokeColor=none;buttonText=;strokeColor2=#222222;fontColor=#222222;fontSize=8;verticalLabelPosition=bottom;verticalAlign=top;align=center;sketch=0;" vertex="1" parent="1">
          <mxGeometry x="528" y="322" width="84" height="61" as="geometry" />
        </mxCell>
        <mxCell id="WRb-MRRNFJ1OJcF1Neac-28" value="" style="image;aspect=fixed;html=1;points=[];align=center;fontSize=12;image=img/lib/azure2/compute/VM_Images_Classic.svg;" vertex="1" parent="1">
          <mxGeometry x="684" y="273" width="69" height="64" as="geometry" />
        </mxCell>
        <mxCell id="WRb-MRRNFJ1OJcF1Neac-31" style="edgeStyle=orthogonalEdgeStyle;rounded=0;orthogonalLoop=1;jettySize=auto;html=1;" edge="1" parent="1" source="WRb-MRRNFJ1OJcF1Neac-29" target="WRb-MRRNFJ1OJcF1Neac-30">
          <mxGeometry relative="1" as="geometry" />
        </mxCell>
        <mxCell id="WRb-MRRNFJ1OJcF1Neac-29" value="" style="image;sketch=0;aspect=fixed;html=1;points=[];align=center;fontSize=12;image=img/lib/mscae/VM_Images.svg;" vertex="1" parent="1">
          <mxGeometry x="1043" y="267.28000000000003" width="82" height="75.44" as="geometry" />
        </mxCell>
        <mxCell id="WRb-MRRNFJ1OJcF1Neac-30" value="" style="image;aspect=fixed;html=1;points=[];align=center;fontSize=12;image=img/lib/azure2/general/Dashboard.svg;" vertex="1" parent="1">
          <mxGeometry x="903" y="281" width="68" height="48" as="geometry" />
        </mxCell>
        <mxCell id="WRb-MRRNFJ1OJcF1Neac-32" style="edgeStyle=orthogonalEdgeStyle;rounded=0;orthogonalLoop=1;jettySize=auto;html=1;entryX=0.979;entryY=0.453;entryDx=0;entryDy=0;entryPerimeter=0;dashed=1;flowAnimation=1;fillColor=#60a917;strokeColor=#2D7600;" edge="1" parent="1" source="WRb-MRRNFJ1OJcF1Neac-30" target="WRb-MRRNFJ1OJcF1Neac-16">
          <mxGeometry relative="1" as="geometry">
            <Array as="points">
              <mxPoint x="937" y="228" />
            </Array>
          </mxGeometry>
        </mxCell>
        <mxCell id="WRb-MRRNFJ1OJcF1Neac-33" style="edgeStyle=orthogonalEdgeStyle;rounded=0;orthogonalLoop=1;jettySize=auto;html=1;entryX=0.034;entryY=0.576;entryDx=0;entryDy=0;entryPerimeter=0;" edge="1" parent="1" source="WRb-MRRNFJ1OJcF1Neac-20" target="WRb-MRRNFJ1OJcF1Neac-21">
          <mxGeometry relative="1" as="geometry" />
        </mxCell>
        <mxCell id="WRb-MRRNFJ1OJcF1Neac-35" style="edgeStyle=orthogonalEdgeStyle;rounded=0;orthogonalLoop=1;jettySize=auto;html=1;entryX=0.51;entryY=0.984;entryDx=0;entryDy=0;entryPerimeter=0;dashed=1;fillColor=#6d8764;strokeColor=#3A5431;flowAnimation=1;" edge="1" parent="1" source="WRb-MRRNFJ1OJcF1Neac-21" target="WRb-MRRNFJ1OJcF1Neac-16">
          <mxGeometry relative="1" as="geometry" />
        </mxCell>
        <mxCell id="WRb-MRRNFJ1OJcF1Neac-37" value="" style="image;aspect=fixed;perimeter=ellipsePerimeter;html=1;align=center;shadow=0;dashed=0;spacingTop=3;image=img/lib/active_directory/internet_globe.svg;" vertex="1" parent="1">
          <mxGeometry x="496" y="494" width="131" height="131" as="geometry" />
        </mxCell>
        <mxCell id="WRb-MRRNFJ1OJcF1Neac-39" style="edgeStyle=orthogonalEdgeStyle;rounded=0;orthogonalLoop=1;jettySize=auto;html=1;entryX=0.5;entryY=1;entryDx=0;entryDy=0;dashed=1;startArrow=classic;startFill=1;fillColor=#e3c800;strokeColor=#B09500;flowAnimation=1;" edge="1" parent="1" source="WRb-MRRNFJ1OJcF1Neac-38" target="WRb-MRRNFJ1OJcF1Neac-37">
          <mxGeometry relative="1" as="geometry" />
        </mxCell>
        <mxCell id="WRb-MRRNFJ1OJcF1Neac-38" value="" style="image;html=1;image=img/lib/clip_art/computers/Laptop_128x128.png" vertex="1" parent="1">
          <mxGeometry x="521.5" y="702" width="80" height="80" as="geometry" />
        </mxCell>
        <mxCell id="WRb-MRRNFJ1OJcF1Neac-40" style="edgeStyle=orthogonalEdgeStyle;rounded=0;orthogonalLoop=1;jettySize=auto;html=1;entryX=0.98;entryY=0.47;entryDx=0;entryDy=0;entryPerimeter=0;dashed=1;fillColor=#fa6800;strokeColor=#C73500;flowAnimation=1;" edge="1" parent="1" source="WRb-MRRNFJ1OJcF1Neac-37" target="WRb-MRRNFJ1OJcF1Neac-22">
          <mxGeometry relative="1" as="geometry" />
        </mxCell>
        <mxCell id="WRb-MRRNFJ1OJcF1Neac-41" value="saa-database" style="text;html=1;align=center;verticalAlign=middle;whiteSpace=wrap;rounded=0;" vertex="1" parent="1">
          <mxGeometry x="178" y="173" width="82" height="30" as="geometry" />
        </mxCell>
        <mxCell id="WRb-MRRNFJ1OJcF1Neac-42" value="Sistema" style="text;html=1;align=center;verticalAlign=middle;whiteSpace=wrap;rounded=0;" vertex="1" parent="1">
          <mxGeometry x="171" y="408" width="82" height="30" as="geometry" />
        </mxCell>
        <mxCell id="WRb-MRRNFJ1OJcF1Neac-43" value="App Gateway" style="text;html=1;align=center;verticalAlign=middle;whiteSpace=wrap;rounded=0;" vertex="1" parent="1">
          <mxGeometry x="324" y="405" width="82" height="30" as="geometry" />
        </mxCell>
        <mxCell id="WRb-MRRNFJ1OJcF1Neac-44" value="Virtual Network Gateway" style="text;html=1;align=center;verticalAlign=middle;whiteSpace=wrap;rounded=0;" vertex="1" parent="1">
          <mxGeometry x="311" y="302.5" width="95" height="30" as="geometry" />
        </mxCell>
        <mxCell id="WRb-MRRNFJ1OJcF1Neac-45" value="VM-FW" style="text;html=1;align=center;verticalAlign=middle;whiteSpace=wrap;rounded=0;" vertex="1" parent="1">
          <mxGeometry x="671" y="342.72" width="82" height="30" as="geometry" />
        </mxCell>
        <mxCell id="WRb-MRRNFJ1OJcF1Neac-46" value="Dashboard" style="text;html=1;align=center;verticalAlign=middle;whiteSpace=wrap;rounded=0;" vertex="1" parent="1">
          <mxGeometry x="896" y="332.5" width="82" height="28.28" as="geometry" />
        </mxCell>
        <mxCell id="WRb-MRRNFJ1OJcF1Neac-47" value="VM-APP" style="text;html=1;align=center;verticalAlign=middle;whiteSpace=wrap;rounded=0;" vertex="1" parent="1">
          <mxGeometry x="1040" y="343.58" width="82" height="28.28" as="geometry" />
        </mxCell>
        <mxCell id="WRb-MRRNFJ1OJcF1Neac-48" value="Users Externos" style="text;html=1;align=center;verticalAlign=middle;whiteSpace=wrap;rounded=0;" vertex="1" parent="1">
          <mxGeometry x="612" y="740" width="82" height="30" as="geometry" />
        </mxCell>
      </root>
    </mxGraphModel>
  </diagram>
</mxfile>
